<svg width="1400" height="420" viewBox="0 0 1400 420" fill="none" xmlns="http://www.w3.org/2000/svg" role="img" aria-label="BayesInspector banner">
  <rect width="1400" height="420" rx="28" fill="#0F0F0F"/>
  <g opacity="0.28">
    <circle cx="108" cy="86" r="2" fill="#E0FF53"/>
    <circle cx="148" cy="86" r="2" fill="#E0FF53"/>
    <circle cx="188" cy="86" r="2" fill="#E0FF53"/>
    <circle cx="228" cy="86" r="2" fill="#E0FF53"/>
    <circle cx="268" cy="86" r="2" fill="#E0FF53"/>
    <circle cx="308" cy="86" r="2" fill="#E0FF53"/>
    <circle cx="348" cy="86" r="2" fill="#E0FF53"/>
    <circle cx="388" cy="86" r="2" fill="#E0FF53"/>
    <circle cx="428" cy="86" r="2" fill="#E0FF53"/>
    <circle cx="468" cy="86" r="2" fill="#E0FF53"/>
    <circle cx="508" cy="86" r="2" fill="#E0FF53"/>
    <circle cx="548" cy="86" r="2" fill="#E0FF53"/>
    <circle cx="588" cy="86" r="2" fill="#E0FF53"/>
    <circle cx="628" cy="86" r="2" fill="#E0FF53"/>
    <circle cx="668" cy="86" r="2" fill="#E0FF53"/>
    <circle cx="708" cy="86" r="2" fill="#E0FF53"/>
  </g>
  <g opacity="0.12" stroke="#D9D9D9">
    <path d="M88 308H1312"/>
    <path d="M88 248H1312"/>
    <path d="M88 188H1312"/>
  </g>
  <g>
    <path d="M88 322L186 268L284 294L382 220L480 250L578 184L676 222L774 160L872 198L970 138L1068 178L1166 122L1264 154" stroke="#3B82F6" stroke-width="4" stroke-linecap="round" stroke-linejoin="round" opacity="0.9"/>
    <path d="M88 350L186 318L284 330L382 292L480 302L578 266L676 274L774 244L872 250L970 226L1068 232L1166 210L1264 214" stroke="#F14336" stroke-width="4" stroke-linecap="round" stroke-linejoin="round" opacity="0.9"/>
  </g>
  <g>
    <rect x="92" y="56" width="182" height="34" rx="17" fill="#161616" stroke="#2A2A2A"/>
    <text x="112" y="79" fill="#E0FF53" font-family="Space Mono, monospace" font-size="14" letter-spacing="2">BAYESINSPECTOR</text>
  </g>
  <text x="88" y="170" fill="#FFFFFF" font-family="Space Mono, monospace" font-size="72" font-weight="700" letter-spacing="-2">Probabilistic</text>
  <text x="88" y="248" fill="#FFFFFF" font-family="Space Mono, monospace" font-size="72" font-weight="700" letter-spacing="-2">Text Classification</text>
  <text x="92" y="304" fill="#D0D0D0" font-family="DM Sans, sans-serif" font-size="24">Naive Bayes, exposed word by word.</text>
  <text x="92" y="340" fill="#888888" font-family="DM Sans, sans-serif" font-size="18">Spam, news, and sentiment models with client-side inference.</text>
  <g transform="translate(1062 80)">
    <rect x="0" y="0" width="236" height="248" rx="20" fill="#161616" stroke="#2A2A2A"/>
    <text x="24" y="40" fill="#888888" font-family="Space Mono, monospace" font-size="12" letter-spacing="2">P(C|X)</text>
    <rect x="24" y="64" width="188" height="14" rx="7" fill="#2A2A2A"/>
    <rect x="24" y="64" width="140" height="14" rx="7" fill="#E0FF53"/>
    <rect x="24" y="94" width="188" height="14" rx="7" fill="#2A2A2A"/>
    <rect x="24" y="94" width="108" height="14" rx="7" fill="#3B82F6"/>
    <rect x="24" y="124" width="188" height="14" rx="7" fill="#2A2A2A"/>
    <rect x="24" y="124" width="76" height="14" rx="7" fill="#F14336"/>
    <rect x="24" y="154" width="188" height="14" rx="7" fill="#2A2A2A"/>
    <rect x="24" y="154" width="94" height="14" rx="7" fill="#D9D9D9"/>
    <text x="24" y="206" fill="#D0D0D0" font-family="DM Sans, sans-serif" font-size="15">Token contributions</text>
    <text x="24" y="230" fill="#888888" font-family="DM Sans, sans-serif" font-size="13">Prior → Likelihood → Posterior</text>
  </g>
</svg>
